<svg xmlns="http://www.w3.org/2000/svg" viewBox="0 0 1200 675" role="img" aria-labelledby="t d">
  <title id="t">Bits Sniper FPS Base</title>
  <desc id="d">Neon target practice arena cover art for a basic FPS prototype.</desc>
  <defs>
    <linearGradient id="bg" x1="0" y1="0" x2="1" y2="1">
      <stop offset="0%" stop-color="#0b192a"/>
      <stop offset="55%" stop-color="#13263c"/>
      <stop offset="100%" stop-color="#08121f"/>
    </linearGradient>
    <radialGradient id="glowA" cx="0.24" cy="0.16" r="0.68">
      <stop offset="0%" stop-color="#4ac8ff" stop-opacity="0.54"/>
      <stop offset="100%" stop-color="#4ac8ff" stop-opacity="0"/>
    </radialGradient>
    <radialGradient id="glowB" cx="0.82" cy="0.84" r="0.66">
      <stop offset="0%" stop-color="#ff9a62" stop-opacity="0.42"/>
      <stop offset="100%" stop-color="#ff9a62" stop-opacity="0"/>
    </radialGradient>
    <linearGradient id="grid" x1="0" y1="0" x2="0" y2="1">
      <stop offset="0%" stop-color="#5fb8ff" stop-opacity="0.35"/>
      <stop offset="100%" stop-color="#5fb8ff" stop-opacity="0.03"/>
    </linearGradient>
  </defs>
  <rect width="1200" height="675" fill="url(#bg)"/>
  <rect width="1200" height="675" fill="url(#glowA)"/>
  <rect width="1200" height="675" fill="url(#glowB)"/>

  <g stroke="url(#grid)" stroke-width="1">
    <path d="M0 430H1200"/>
    <path d="M0 470H1200"/>
    <path d="M0 510H1200"/>
    <path d="M0 550H1200"/>
    <path d="M0 590H1200"/>
    <path d="M0 630H1200"/>
    <path d="M80 675V350"/>
    <path d="M200 675V350"/>
    <path d="M320 675V350"/>
    <path d="M440 675V350"/>
    <path d="M560 675V350"/>
    <path d="M680 675V350"/>
    <path d="M800 675V350"/>
    <path d="M920 675V350"/>
    <path d="M1040 675V350"/>
    <path d="M1160 675V350"/>
  </g>

  <g fill="#ff8e5f" stroke="#ffd1b8" stroke-width="3">
    <rect x="280" y="300" width="64" height="64" rx="6"/>
    <rect x="545" y="210" width="70" height="70" rx="7"/>
    <rect x="760" y="320" width="58" height="58" rx="6"/>
    <rect x="910" y="245" width="74" height="74" rx="8"/>
  </g>

  <g fill="none" stroke="#d6eeff" stroke-width="4" opacity="0.95">
    <circle cx="600" cy="335" r="34"/>
    <path d="M600 278V305M600 365V392M543 335H570M630 335H657"/>
  </g>

  <g fill="#eaf6ff" font-family="'Oxanium','Segoe UI',sans-serif" text-anchor="middle">
    <text x="600" y="126" font-size="84" font-weight="700" letter-spacing="6">BITS SNIPER</text>
    <text x="600" y="178" font-size="30" font-weight="500" letter-spacing="3" opacity="0.88">
      FPS PROTOTYPE BASE
    </text>
  </g>
</svg>
