<svg xmlns="http://www.w3.org/2000/svg" viewBox="0 0 1200 675" role="img" aria-labelledby="t d">
  <title id="t">Raid Hero cover</title>
  <desc id="d">A neon split-screen rhythm game cover for two players.</desc>
  <defs>
    <linearGradient id="bg" x1="0" y1="0" x2="1" y2="1">
      <stop offset="0%" stop-color="#09111b"/>
      <stop offset="45%" stop-color="#102030"/>
      <stop offset="100%" stop-color="#070d16"/>
    </linearGradient>
    <radialGradient id="mintGlow" cx="0.2" cy="0.1" r="0.7">
      <stop offset="0%" stop-color="#6ff7c3" stop-opacity="0.5"/>
      <stop offset="100%" stop-color="#6ff7c3" stop-opacity="0"/>
    </radialGradient>
    <radialGradient id="orangeGlow" cx="0.82" cy="0.84" r="0.66">
      <stop offset="0%" stop-color="#ff9e73" stop-opacity="0.45"/>
      <stop offset="100%" stop-color="#ff9e73" stop-opacity="0"/>
    </radialGradient>
  </defs>

  <rect width="1200" height="675" fill="url(#bg)"/>
  <rect width="1200" height="675" fill="url(#mintGlow)"/>
  <rect width="1200" height="675" fill="url(#orangeGlow)"/>

  <g fill="none" stroke="#2d4663" stroke-width="2" opacity="0.58">
    <path d="M600 115V610"/>
    <path d="M160 200V610M260 200V610M360 200V610M460 200V610"/>
    <path d="M740 200V610M840 200V610M940 200V610M1040 200V610"/>
    <path d="M100 560H1100"/>
  </g>

  <g>
    <rect x="150" y="220" width="70" height="26" rx="13" fill="#57c8ff" stroke="#d8f5ff" stroke-width="2"/>
    <rect x="278" y="300" width="70" height="26" rx="13" fill="#57c8ff" stroke="#d8f5ff" stroke-width="2"/>
    <rect x="406" y="250" width="70" height="26" rx="13" fill="#57c8ff" stroke="#d8f5ff" stroke-width="2"/>
    <rect x="486" y="365" width="70" height="26" rx="13" fill="#57c8ff" stroke="#d8f5ff" stroke-width="2"/>
  </g>

  <g>
    <rect x="738" y="236" width="70" height="26" rx="13" fill="#ff9b67" stroke="#ffe7d8" stroke-width="2"/>
    <rect x="820" y="344" width="70" height="26" rx="13" fill="#ff9b67" stroke="#ffe7d8" stroke-width="2"/>
    <rect x="948" y="284" width="70" height="26" rx="13" fill="#ff9b67" stroke="#ffe7d8" stroke-width="2"/>
    <rect x="1030" y="390" width="70" height="26" rx="13" fill="#ff9b67" stroke="#ffe7d8" stroke-width="2"/>
  </g>

  <g fill="none" stroke="#eef8ff" stroke-width="4" opacity="0.95">
    <circle cx="600" cy="332" r="38"/>
    <path d="M600 272V302M600 362V392M540 332H570M630 332H660"/>
  </g>

  <g fill="#edf7ff" text-anchor="middle" font-family="'Teko','Segoe UI',sans-serif">
    <text x="600" y="120" font-size="98" font-weight="700" letter-spacing="7">RAID HERO</text>
    <text x="600" y="170" font-size="34" font-weight="500" letter-spacing="4" opacity="0.88">
      TWO PLAYER RHYTHM BASE
    </text>
  </g>
</svg>
